<svg width="126" height="126" viewBox="0 0 126 126" fill="none" xmlns="http://www.w3.org/2000/svg"><rect width="61.026" height="61.026" rx="17.862" transform="rotate(-45.029 84.925 6.862)" fill="url(#a)"/><path transform="rotate(-45.029 77.102 24.03)" stroke="url(#b)" d="M-.707 0h82.368v82.368H-.707z"/><path transform="rotate(-45.029 75.067 28.934)" fill="#F3F4F8" stroke="url(#c)" d="M-.707 0h6.086v6.086H-.707z"/><path transform="rotate(-45.029 174.006 -11.96)" fill="#F3F4F8" stroke="url(#d)" d="M-.707 0h6.086v6.086H-.707z"/><path transform="rotate(-45.029 132.504 -109.632)" fill="#F3F4F8" stroke="url(#e)" d="M-.707 0h6.086v6.086H-.707z"/><path transform="rotate(-45.029 35.3 -69.455)" fill="#F3F4F8" stroke="url(#f)" d="M-.707 0h6.086v6.086H-.707z"/><path d="M54.584 72.5V53.833a2.333 2.333 0 0 1 2.334-2.333h11.666a2.333 2.333 0 0 1 2.334 2.333V72.5l-6.905-4.44a2.334 2.334 0 0 0-2.524 0l-6.905 4.44Z" stroke="#F8FAFC" strokeWidth="1.75" strokeLinecap="round" strokeLinejoin="round"/><defs><linearGradient id="a" x1="9.389" y1="5.633" x2="61.026" y2="61.026" gradientUnits="userSpaceOnUse"><stop stop-color="#6EE7B7"/><stop offset="1" stop-color="#10B981"/></linearGradient><linearGradient id="b" x1="40.684" y1="0" x2="40.684" y2="81.368" gradientUnits="userSpaceOnUse"><stop stop-color="#10B981"/><stop offset="1" stop-color="#6EE7B7"/></linearGradient><linearGradient id="c" x1="2.543" y1="0" x2="2.543" y2="5.086" gradientUnits="userSpaceOnUse"><stop stop-color="#10B981"/><stop offset="1" stop-color="#6EE7B7"/></linearGradient><linearGradient id="d" x1="2.543" y1="0" x2="2.543" y2="5.086" gradientUnits="userSpaceOnUse"><stop stop-color="#10B981"/><stop offset="1" stop-color="#6EE7B7"/></linearGradient><linearGradient id="e" x1="2.543" y1="0" x2="2.543" y2="5.086" gradientUnits="userSpaceOnUse"><stop stop-color="#10B981"/><stop offset="1" stop-color="#6EE7B7"/></linearGradient><linearGradient id="f" x1="2.543" y1="0" x2="2.543" y2="5.086" gradientUnits="userSpaceOnUse"><stop stop-color="#10B981"/><stop offset="1" stop-color="#6EE7B7"/></linearGradient></defs></svg>