<svg width="90" height="91" viewBox="0 0 90 91" fill="none" xmlns="http://www.w3.org/2000/svg"><path d="M10 38.348c0-15.464 12.536-28 28-28h28c13.255 0 24 10.745 24 24v32c0 13.254-10.745 24-24 24H19a9 9 0 0 1-9-9v-43Z" fill="#10B981"/><path d="M28 3.678h28c11.416 0 20.67 9.254 20.67 20.67v32c0 11.415-9.254 20.67-20.67 20.67H9a5.67 5.67 0 0 1-5.67-5.67v-43c0-13.625 11.045-24.67 24.67-24.67Z" stroke="url(#a)" strokeWidth="6.66"/><path d="M42.5 30.348 36.667 51.18m-5.834-16.667L25 40.348l5.833 5.833m18.334-11.667L55 40.348l-5.833 5.833" stroke="#D1FAE5" strokeWidth="2.5" strokeLinecap="round" strokeLinejoin="round"/><defs><radialGradient id="a" cx="0" cy="0" r="1" gradientUnits="userSpaceOnUse" gradientTransform="matrix(40 0 0 40 40 40.348)"><stop stop-color="#34D399"/><stop offset=".25" stop-color="#67E8F9"/><stop offset=".5" stop-color="#34D399"/><stop offset=".75" stop-color="#67E8F9"/><stop offset="1" stop-color="#34D399"/></radialGradient></defs></svg>