<svg width="123" height="107" viewBox="0 0 123 107" fill="none" xmlns="http://www.w3.org/2000/svg"><path d="M116.236 51.126c.288-.886 1.541-.886 1.828 0a.962.962 0 0 0 .914.665c.931 0 1.317 1.192.564 1.74a.965.965 0 0 0-.349 1.076c.287.885-.725 1.624-1.478 1.077a.96.96 0 0 0-1.13 0c-.752.547-1.765-.192-1.478-1.077a.962.962 0 0 0-.349-1.076c-.753-.548-.367-1.74.564-1.74a.96.96 0 0 0 .914-.665Z" fill="#ECFDF5"/><rect x="-.706" width="75.511" height="75.511" rx="22.482" transform="rotate(-45.051 63.835 26.127)" stroke="#D1FAE5" stroke-dasharray="3 3"/><rect width="60.414" height="60.414" rx="17.862" transform="rotate(-45.051 69.571 13.999)" fill="url(#a)"/><path d="M89.257 87.852c.23-.709 1.232-.709 1.462 0a.769.769 0 0 0 .731.531c.745 0 1.054.954.452 1.393a.771.771 0 0 0-.28.86c.23.709-.58 1.3-1.182.862a.768.768 0 0 0-.904 0c-.602.438-1.412-.153-1.182-.862a.771.771 0 0 0-.28-.86c-.602-.439-.293-1.393.452-1.393a.769.769 0 0 0 .73-.531ZM8.594 88.415c.287-.886 1.54-.886 1.827 0a.961.961 0 0 0 .914.664c.932 0 1.317 1.193.565 1.741a.964.964 0 0 0-.35 1.076c.287.885-.725 1.624-1.477 1.077a.96.96 0 0 0-1.13 0c-.753.547-1.765-.192-1.478-1.077a.964.964 0 0 0-.35-1.076c-.752-.548-.366-1.74.565-1.74a.96.96 0 0 0 .914-.665ZM10.606 14.845c.287-.886 1.54-.886 1.827 0a.961.961 0 0 0 .914.664c.932 0 1.318 1.193.565 1.741a.964.964 0 0 0-.35 1.076c.288.885-.725 1.624-1.477 1.077a.96.96 0 0 0-1.13 0c-.753.547-1.765-.192-1.478-1.077a.964.964 0 0 0-.35-1.076c-.752-.548-.366-1.74.565-1.74a.96.96 0 0 0 .914-.665ZM90.08 3.759c.288-.886 1.54-.886 1.828 0a.96.96 0 0 0 .914.664c.931 0 1.317 1.193.564 1.741a.964.964 0 0 0-.35 1.076c.288.885-.724 1.624-1.477 1.077a.96.96 0 0 0-1.13 0c-.753.547-1.765-.192-1.478-1.077a.964.964 0 0 0-.35-1.076c-.752-.548-.366-1.74.565-1.74a.96.96 0 0 0 .914-.665Z" fill="#ECFDF5"/><path d="M47.62 58.63a.7.7 0 0 0-.205-.494l-4.256-4.256a.702.702 0 0 1-.206-.497V44.34a2.333 2.333 0 0 1 2.334-2.333H61.62a2.333 2.333 0 0 1 2.334 2.333v9.044a.7.7 0 0 1-.206.495l-4.256 4.256a.698.698 0 0 0-.205.496v4.376a2.333 2.333 0 0 1-2.334 2.333h-7a2.333 2.333 0 0 1-2.333-2.333V58.63Z" stroke="#0F172A" strokeWidth="1.75"/><path d="m50.537 53.091.583-1.283m5.25 1.283-.583-1.283m0 0-2.334-5.133-2.333 5.133m4.667 0H51.12" stroke="#0F172A" strokeWidth="1.75" strokeLinecap="round" strokeLinejoin="round"/><defs><linearGradient id="a" x1="30.207" y1="0" x2="30.207" y2="60.414" gradientUnits="userSpaceOnUse"><stop stop-color="#67E8F9"/><stop offset="1" stop-color="#10B981"/></linearGradient></defs></svg>