<svg width="126" height="126" viewBox="0 0 126 126" fill="none" xmlns="http://www.w3.org/2000/svg"><rect width="61.026" height="61.026" rx="17.862" transform="rotate(-45.029 85.21 6.174)" fill="url(#a)"/><path transform="rotate(-45.029 77.387 23.341)" stroke="url(#b)" d="M-.707 0h82.368v82.368H-.707z"/><path transform="rotate(-45.029 75.352 28.245)" fill="#F3F4F8" stroke="url(#c)" d="M-.707 0h6.086v6.086H-.707z"/><path transform="rotate(-45.029 174.291 -12.649)" fill="#F3F4F8" stroke="url(#d)" d="M-.707 0h6.086v6.086H-.707z"/><path transform="rotate(-45.029 132.79 -110.32)" fill="#F3F4F8" stroke="url(#e)" d="M-.707 0h6.086v6.086H-.707z"/><path transform="rotate(-45.029 35.586 -70.144)" fill="#F3F4F8" stroke="url(#f)" d="M-.707 0h6.086v6.086H-.707z"/><path d="M55.738 66.667c5.834 2.916 9.334 2.916 15.167 0m-3.5 1.75 1.167 2.333s4.866-1.55 6.416-4.083c0-1.167.619-9.505-3.5-12.25-1.75-1.167-4.666-1.75-4.666-1.75L65.655 55h-2.333" stroke="#ECFDF5" strokeWidth="1.75" strokeLinecap="round" strokeLinejoin="round"/><path d="m59.271 68.417-1.167 2.333s-4.866-1.55-6.416-4.083c0-1.167-.619-9.505 3.5-12.25 1.75-1.167 4.666-1.75 4.666-1.75L61.021 55h2.333" stroke="#ECFDF5" strokeWidth="1.75" strokeLinecap="round" strokeLinejoin="round"/><path d="M59.238 64.333c-.966 0-1.75-1.044-1.75-2.333 0-1.29.784-2.333 1.75-2.333s1.75 1.044 1.75 2.333c0 1.29-.784 2.333-1.75 2.333Zm8.167 0c-.966 0-1.75-1.044-1.75-2.333 0-1.29.784-2.333 1.75-2.333s1.75 1.044 1.75 2.333c0 1.29-.784 2.333-1.75 2.333Z" stroke="#ECFDF5" strokeWidth="1.75" strokeLinecap="round" strokeLinejoin="round"/><defs><linearGradient id="a" x1="9.389" y1="5.633" x2="61.026" y2="61.026" gradientUnits="userSpaceOnUse"><stop stop-color="#6EE7B7"/><stop offset="1" stop-color="#10B981"/></linearGradient><linearGradient id="b" x1="40.684" y1="0" x2="40.684" y2="81.368" gradientUnits="userSpaceOnUse"><stop stop-color="#10B981"/><stop offset="1" stop-color="#6EE7B7"/></linearGradient><linearGradient id="c" x1="2.543" y1="0" x2="2.543" y2="5.086" gradientUnits="userSpaceOnUse"><stop stop-color="#10B981"/><stop offset="1" stop-color="#6EE7B7"/></linearGradient><linearGradient id="d" x1="2.543" y1="0" x2="2.543" y2="5.086" gradientUnits="userSpaceOnUse"><stop stop-color="#10B981"/><stop offset="1" stop-color="#6EE7B7"/></linearGradient><linearGradient id="e" x1="2.543" y1="0" x2="2.543" y2="5.086" gradientUnits="userSpaceOnUse"><stop stop-color="#10B981"/><stop offset="1" stop-color="#6EE7B7"/></linearGradient><linearGradient id="f" x1="2.543" y1="0" x2="2.543" y2="5.086" gradientUnits="userSpaceOnUse"><stop stop-color="#10B981"/><stop offset="1" stop-color="#6EE7B7"/></linearGradient></defs></svg>