<svg width="122" height="107" viewBox="0 0 122 107" fill="none" xmlns="http://www.w3.org/2000/svg"><path d="M115.783 51.126c.287-.886 1.54-.886 1.828 0a.96.96 0 0 0 .914.665c.931 0 1.317 1.192.564 1.74a.962.962 0 0 0-.349 1.076c.287.885-.726 1.624-1.478 1.077a.961.961 0 0 0-1.131 0c-.752.547-1.764-.192-1.477-1.077a.965.965 0 0 0-.349-1.076c-.753-.548-.367-1.74.564-1.74a.962.962 0 0 0 .914-.665Z" fill="#ECFDF5"/><rect x="-.706" width="75.511" height="75.511" rx="22.482" transform="rotate(-45.051 63.608 26.674)" stroke="#D1FAE5" stroke-dasharray="3 3"/><rect width="60.414" height="60.414" rx="17.862" transform="rotate(-45.051 69.345 14.546)" fill="url(#a)"/><path d="M88.803 87.852c.23-.709 1.233-.709 1.463 0a.769.769 0 0 0 .73.531c.746 0 1.055.954.452 1.393a.771.771 0 0 0-.28.86c.23.709-.58 1.3-1.181.862a.768.768 0 0 0-.905 0c-.602.438-1.411-.153-1.182-.862a.771.771 0 0 0-.28-.86c-.601-.439-.293-1.393.452-1.393a.769.769 0 0 0 .731-.531ZM8.14 88.415c.287-.886 1.54-.886 1.828 0a.961.961 0 0 0 .914.664c.931 0 1.317 1.193.564 1.741a.964.964 0 0 0-.35 1.076c.288.885-.724 1.624-1.477 1.077a.96.96 0 0 0-1.13 0c-.753.547-1.765-.192-1.478-1.077a.964.964 0 0 0-.35-1.076c-.752-.548-.366-1.74.565-1.74a.96.96 0 0 0 .914-.665ZM10.152 14.845c.288-.886 1.54-.886 1.828 0a.961.961 0 0 0 .914.664c.931 0 1.317 1.193.564 1.741a.964.964 0 0 0-.35 1.076c.288.885-.724 1.624-1.477 1.077a.96.96 0 0 0-1.13 0c-.753.547-1.765-.192-1.478-1.077a.964.964 0 0 0-.349-1.076c-.753-.548-.367-1.74.564-1.74a.96.96 0 0 0 .914-.665ZM89.627 3.759c.287-.886 1.54-.886 1.827 0a.96.96 0 0 0 .914.664c.932 0 1.318 1.193.565 1.741a.964.964 0 0 0-.35 1.076c.288.885-.725 1.624-1.477 1.077a.96.96 0 0 0-1.13 0c-.753.547-1.765-.192-1.478-1.077a.964.964 0 0 0-.35-1.076c-.752-.548-.367-1.74.565-1.74a.96.96 0 0 0 .914-.665Z" fill="#ECFDF5"/><path d="M46 46.613a3.5 3.5 0 0 1 3.5-3.5H53v7h-3.5a3.5 3.5 0 0 1-3.5-3.5v0Zm7-3.5h3.5a3.5 3.5 0 1 1 0 7H53v-7Z" stroke="#0F172A" strokeWidth="1.75" strokeLinecap="round" strokeLinejoin="round"/><path d="M53 53.613a3.5 3.5 0 1 1 7 0 3.5 3.5 0 0 1-7 0Zm-7 7a3.5 3.5 0 0 1 3.5-3.5H53v3.5a3.5 3.5 0 1 1-7 0Zm0-7a3.5 3.5 0 0 1 3.5-3.5H53v7h-3.5a3.5 3.5 0 0 1-3.5-3.5Z" stroke="#0F172A" strokeWidth="1.75" strokeLinecap="round" strokeLinejoin="round"/><defs><linearGradient id="a" x1="30.207" y1="0" x2="30.207" y2="60.414" gradientUnits="userSpaceOnUse"><stop stop-color="#67E8F9"/><stop offset="1" stop-color="#10B981"/></linearGradient></defs></svg>