<svg width="123" height="107" viewBox="0 0 123 107" fill="none" xmlns="http://www.w3.org/2000/svg"><path d="M116.51 51.126c.287-.886 1.54-.886 1.827 0a.962.962 0 0 0 .914.665c.931 0 1.317 1.192.565 1.74a.964.964 0 0 0-.35 1.076c.287.885-.725 1.624-1.477 1.077a.961.961 0 0 0-1.131 0c-.752.547-1.765-.192-1.477-1.077a.964.964 0 0 0-.35-1.076c-.753-.548-.367-1.74.565-1.74a.962.962 0 0 0 .914-.665Z" fill="#ECFDF5"/><rect x="-.706" width="75.511" height="75.511" rx="22.482" transform="rotate(-45.051 63.972 25.798)" stroke="#D1FAE5" stroke-dasharray="3 3"/><rect width="60.414" height="60.414" rx="17.862" transform="rotate(-45.051 69.708 13.67)" fill="url(#a)"/><path d="M89.53 87.852c.23-.709 1.233-.709 1.462 0a.769.769 0 0 0 .731.531c.746 0 1.054.954.452 1.393a.771.771 0 0 0-.28.86c.23.709-.58 1.3-1.182.862a.768.768 0 0 0-.904 0c-.602.438-1.412-.153-1.182-.862a.771.771 0 0 0-.28-.86c-.602-.439-.293-1.393.452-1.393a.769.769 0 0 0 .731-.531ZM8.867 88.415c.287-.886 1.54-.886 1.828 0a.961.961 0 0 0 .914.664c.93 0 1.317 1.193.564 1.741a.964.964 0 0 0-.35 1.076c.288.885-.725 1.624-1.477 1.077a.96.96 0 0 0-1.13 0c-.753.547-1.765-.192-1.478-1.077a.964.964 0 0 0-.35-1.076c-.752-.548-.366-1.74.565-1.74a.96.96 0 0 0 .914-.665ZM10.879 14.845c.287-.886 1.54-.886 1.828 0a.96.96 0 0 0 .914.664c.93 0 1.317 1.193.564 1.741a.964.964 0 0 0-.35 1.076c.288.885-.725 1.624-1.477 1.077a.96.96 0 0 0-1.13 0c-.753.547-1.765-.192-1.478-1.077a.964.964 0 0 0-.35-1.076c-.752-.548-.366-1.74.565-1.74a.961.961 0 0 0 .914-.665ZM90.353 3.759c.288-.886 1.54-.886 1.828 0a.96.96 0 0 0 .914.664c.931 0 1.317 1.193.564 1.741a.964.964 0 0 0-.349 1.076c.287.885-.725 1.624-1.478 1.077a.96.96 0 0 0-1.13 0c-.752.547-1.765-.192-1.478-1.077a.964.964 0 0 0-.349-1.076c-.753-.548-.367-1.74.564-1.74a.96.96 0 0 0 .914-.665Z" fill="#ECFDF5"/><path d="M52.56 63.644h3.5M43.227 54.31v-3.5m3.5-8.166h-2.8a.7.7 0 0 0-.7.7v2.8m12.833-3.5h-4.667m12.834 8.166v4.667m-3.5-12.833h2.8a.7.7 0 0 1 .7.7v2.8m-3.5 17.5h2.8a.7.7 0 0 0 .7-.7v-2.8M52.56 50.81h3.5v3.5m-3.5.7v8.634h-8.633a.7.7 0 0 1-.7-.7V54.31h8.633a.7.7 0 0 1 .7.7v0Z" stroke="#0F172A" strokeWidth="1.75" strokeLinecap="round" strokeLinejoin="round"/><defs><linearGradient id="a" x1="30.207" y1="0" x2="30.207" y2="60.414" gradientUnits="userSpaceOnUse"><stop stop-color="#67E8F9"/><stop offset="1" stop-color="#10B981"/></linearGradient></defs></svg>