<svg width="126" height="126" viewBox="0 0 126 126" fill="none" xmlns="http://www.w3.org/2000/svg"><rect width="61.026" height="61.026" rx="17.862" transform="rotate(-45.029 85.14 6.344)" fill="url(#a)"/><path transform="rotate(-45.029 77.317 23.512)" stroke="url(#b)" d="M-.707 0h82.368v82.368H-.707z"/><path transform="rotate(-45.029 75.282 28.416)" fill="#F3F4F8" stroke="url(#c)" d="M-.707 0h6.086v6.086H-.707z"/><path transform="rotate(-45.029 174.22 -12.478)" fill="#F3F4F8" stroke="url(#d)" d="M-.707 0h6.086v6.086H-.707z"/><path transform="rotate(-45.029 132.719 -110.15)" fill="#F3F4F8" stroke="url(#e)" d="M-.707 0h6.086v6.086H-.707z"/><path transform="rotate(-45.029 35.515 -69.973)" fill="#F3F4F8" stroke="url(#f)" d="M-.707 0h6.086v6.086H-.707z"/><path d="M74.68 50.333 73.514 51.5M53.68 50.333l1.167 1.167M74.68 66.667 73.514 65.5M53.68 66.667l1.167-1.167M60.68 69h7m-5.833 3.5h4.667m-2.334-21c-4.666 0-7.056 2.275-7 5.833.027 1.735.584 2.917 1.75 4.084 1.167 1.166 1.75 1.75 1.75 4.083h7c0-2.333.584-2.917 1.75-4.083 1.167-1.167 1.723-2.349 1.75-4.084.056-3.558-2.333-5.833-7-5.833Z" stroke="#ECFDF5" strokeWidth="1.75" strokeLinecap="round" strokeLinejoin="round"/><defs><linearGradient id="a" x1="9.389" y1="5.633" x2="61.026" y2="61.026" gradientUnits="userSpaceOnUse"><stop stop-color="#6EE7B7"/><stop offset="1" stop-color="#10B981"/></linearGradient><linearGradient id="b" x1="40.684" y1="0" x2="40.684" y2="81.368" gradientUnits="userSpaceOnUse"><stop stop-color="#10B981"/><stop offset="1" stop-color="#6EE7B7"/></linearGradient><linearGradient id="c" x1="2.543" y1="0" x2="2.543" y2="5.086" gradientUnits="userSpaceOnUse"><stop stop-color="#10B981"/><stop offset="1" stop-color="#6EE7B7"/></linearGradient><linearGradient id="d" x1="2.543" y1="0" x2="2.543" y2="5.086" gradientUnits="userSpaceOnUse"><stop stop-color="#10B981"/><stop offset="1" stop-color="#6EE7B7"/></linearGradient><linearGradient id="e" x1="2.543" y1="0" x2="2.543" y2="5.086" gradientUnits="userSpaceOnUse"><stop stop-color="#10B981"/><stop offset="1" stop-color="#6EE7B7"/></linearGradient><linearGradient id="f" x1="2.543" y1="0" x2="2.543" y2="5.086" gradientUnits="userSpaceOnUse"><stop stop-color="#10B981"/><stop offset="1" stop-color="#6EE7B7"/></linearGradient></defs></svg>